<svg xmlns="http://www.w3.org/2000/svg" width="960" height="900" viewBox="0 0 960 900" role="img" aria-labelledby="title">
  <title id="title">Detail page design option</title>
  <rect width="960" height="900" fill="#ffffff"/>
  <rect x="52" y="44" width="856" height="70" rx="8" fill="#ffffff" stroke="#e4e4e7"/>
  <rect x="80" y="70" width="82" height="18" rx="3" fill="#18181b"/>
  <rect x="608" y="74" width="48" height="8" rx="4" fill="#71717a"/>
  <rect x="676" y="74" width="64" height="8" rx="4" fill="#71717a"/>
  <rect x="80" y="160" width="176" height="14" rx="7" fill="#a1a1aa"/>
  <rect x="80" y="194" width="410" height="32" rx="4" fill="#18181b"/>
  <rect x="80" y="254" width="540" height="12" rx="6" fill="#d4d4d8"/>
  <rect x="80" y="278" width="418" height="12" rx="6" fill="#d4d4d8"/>
  <rect x="80" y="348" width="402" height="380" rx="18" fill="#e4e4e7"/>
  <rect x="510" y="348" width="172" height="180" rx="18" fill="#cbd5e1"/>
  <rect x="704" y="348" width="156" height="380" rx="18" fill="#e4e4e7"/>
  <rect x="510" y="548" width="172" height="180" rx="18" fill="#e2e8f0"/>
  <rect x="80" y="790" width="780" height="1" fill="#e4e4e7"/>
</svg>
